<svg xmlns="http://www.w3.org/2000/svg" viewBox="0 0 129 129">
  <defs>
    <style>
      .cls-1 {
        fill: #00a79d;
      }
    </style>
  </defs>
  <g id="_002-app-development" data-name="002-app-development" transform="translate(0 0)">
    <g id="Group_42" data-name="Group 42" transform="translate(48.374 32.84)">
      <g id="Group_41" data-name="Group 41">
        <path id="Path_256" data-name="Path 256" class="cls-1" d="M201.486,133.194l-2.85-2.85-6.047,6.047a2.013,2.013,0,0,0,0,2.85l6.047,6.047,2.85-2.85-4.622-4.622Z" transform="translate(-191.998 -130.344)"/>
      </g>
    </g>
    <g id="Group_44" data-name="Group 44" transform="translate(71.137 32.84)">
      <g id="Group_43" data-name="Group 43">
        <path id="Path_257" data-name="Path 257" class="cls-1" d="M291.241,136.391l-6.047-6.047-2.85,2.85,4.622,4.622-4.622,4.622,2.85,2.85,6.047-6.047A2.013,2.013,0,0,0,291.241,136.391Z" transform="translate(-282.344 -130.344)"/>
      </g>
    </g>
    <g id="Group_46" data-name="Group 46" transform="translate(60.57 33.634)">
      <g id="Group_45" data-name="Group 45" transform="translate(0 0)">
        <rect id="Rectangle_22" data-name="Rectangle 22" class="cls-1" width="12.749" height="4.031" transform="translate(0 12.093) rotate(-71.554)"/>
      </g>
    </g>
    <g id="Group_48" data-name="Group 48" transform="translate(32.25)">
      <g id="Group_47" data-name="Group 47">
        <path id="Path_258" data-name="Path 258" class="cls-1" d="M188.469,0H132.031A4.035,4.035,0,0,0,128,4.031V124.968A4.035,4.035,0,0,0,132.031,129h56.437a4.035,4.035,0,0,0,4.031-4.031V4.031A4.035,4.035,0,0,0,188.469,0Zm0,124.968H132.031V4.031l56.437,0Z" transform="translate(-128 0)"/>
      </g>
    </g>
    <g id="Group_50" data-name="Group 50" transform="translate(40.312 16.125)">
      <g id="Group_49" data-name="Group 49">
        <path id="Path_259" data-name="Path 259" class="cls-1" d="M170.078,68.031V64h-8.062A2.015,2.015,0,0,0,160,66.016V146.64a2.015,2.015,0,0,0,2.016,2.016h8.062v-4.031h-6.047V68.031Z" transform="translate(-160 -64)"/>
      </g>
    </g>
    <g id="Group_52" data-name="Group 52" transform="translate(78.609 16.125)">
      <g id="Group_51" data-name="Group 51">
        <path id="Path_260" data-name="Path 260" class="cls-1" d="M320.063,64H312v4.031h6.047v76.593H312v4.031h8.062a2.015,2.015,0,0,0,2.016-2.016V66.016A2.015,2.015,0,0,0,320.063,64Z" transform="translate(-312 -64)"/>
      </g>
    </g>
    <g id="Group_54" data-name="Group 54" transform="translate(54.422 16.125)">
      <g id="Group_53" data-name="Group 53">
        <rect id="Rectangle_23" data-name="Rectangle 23" class="cls-1" width="20.156" height="4.031"/>
      </g>
    </g>
    <g id="Group_56" data-name="Group 56" transform="translate(56.437 104.812)">
      <g id="Group_55" data-name="Group 55">
        <path id="Path_261" data-name="Path 261" class="cls-1" d="M232.062,416a8.063,8.063,0,1,0,8.063,8.063A8.071,8.071,0,0,0,232.062,416Zm0,12.094a4.031,4.031,0,1,1,4.031-4.031A4.035,4.035,0,0,1,232.062,428.094Z" transform="translate(-224 -416)"/>
      </g>
    </g>
    <g id="Group_58" data-name="Group 58" transform="translate(56.437 8.062)">
      <g id="Group_57" data-name="Group 57">
        <rect id="Rectangle_24" data-name="Rectangle 24" class="cls-1" width="16.125" height="4.031"/>
      </g>
    </g>
    <g id="Group_60" data-name="Group 60" transform="translate(54.422 96.75)">
      <g id="Group_59" data-name="Group 59">
        <rect id="Rectangle_25" data-name="Rectangle 25" class="cls-1" width="20.156" height="4.031"/>
      </g>
    </g>
    <g id="Group_62" data-name="Group 62" transform="translate(0 12.094)">
      <g id="Group_61" data-name="Group 61">
        <path id="Path_262" data-name="Path 262" class="cls-1" d="M28.219,52.031V48H2.016A2.015,2.015,0,0,0,0,50.016V150.8a2.015,2.015,0,0,0,2.016,2.016h26.2v-4.031H4.031V68.156H28.219V64.125H4.031V52.031Z" transform="translate(0 -48)"/>
      </g>
    </g>
    <g id="Group_64" data-name="Group 64" transform="translate(8.062 20.156)">
      <g id="Group_63" data-name="Group 63">
        <rect id="Rectangle_26" data-name="Rectangle 26" class="cls-1" width="4.031" height="4.031"/>
      </g>
    </g>
    <g id="Group_66" data-name="Group 66" transform="translate(16.125 20.156)">
      <g id="Group_65" data-name="Group 65">
        <rect id="Rectangle_27" data-name="Rectangle 27" class="cls-1" width="4.031" height="4.031"/>
      </g>
    </g>
    <g id="Group_68" data-name="Group 68" transform="translate(24.187 20.156)">
      <g id="Group_67" data-name="Group 67">
        <rect id="Rectangle_28" data-name="Rectangle 28" class="cls-1" width="4.031" height="4.031"/>
      </g>
    </g>
    <g id="Group_70" data-name="Group 70" transform="translate(100.781 12.094)">
      <g id="Group_69" data-name="Group 69">
        <path id="Path_263" data-name="Path 263" class="cls-1" d="M426.2,48H400v4.031h24.187V64.125H400v4.031h24.187v80.625H400v4.031h26.2a2.015,2.015,0,0,0,2.016-2.016V50.016A2.015,2.015,0,0,0,426.2,48Z" transform="translate(-400 -48)"/>
      </g>
    </g>
    <g id="Group_72" data-name="Group 72" transform="translate(108.843 20.156)">
      <g id="Group_71" data-name="Group 71">
        <rect id="Rectangle_29" data-name="Rectangle 29" class="cls-1" width="12.094" height="4.031"/>
      </g>
    </g>
    <g id="Group_74" data-name="Group 74" transform="translate(50.39 56.437)">
      <g id="Group_73" data-name="Group 73">
        <rect id="Rectangle_30" data-name="Rectangle 30" class="cls-1" width="8.062" height="4.031"/>
      </g>
    </g>
    <g id="Group_76" data-name="Group 76" transform="translate(62.484 56.437)">
      <g id="Group_75" data-name="Group 75">
        <rect id="Rectangle_31" data-name="Rectangle 31" class="cls-1" width="16.125" height="4.031"/>
      </g>
    </g>
    <g id="Group_78" data-name="Group 78" transform="translate(70.547 64.5)">
      <g id="Group_77" data-name="Group 77">
        <rect id="Rectangle_32" data-name="Rectangle 32" class="cls-1" width="8.062" height="4.031"/>
      </g>
    </g>
    <g id="Group_80" data-name="Group 80" transform="translate(50.39 64.5)">
      <g id="Group_79" data-name="Group 79">
        <rect id="Rectangle_33" data-name="Rectangle 33" class="cls-1" width="16.125" height="4.031"/>
      </g>
    </g>
    <g id="Group_82" data-name="Group 82" transform="translate(50.39 72.562)">
      <g id="Group_81" data-name="Group 81">
        <rect id="Rectangle_34" data-name="Rectangle 34" class="cls-1" width="8.062" height="4.031"/>
      </g>
    </g>
    <g id="Group_84" data-name="Group 84" transform="translate(62.484 72.562)">
      <g id="Group_83" data-name="Group 83">
        <rect id="Rectangle_35" data-name="Rectangle 35" class="cls-1" width="16.125" height="4.031"/>
      </g>
    </g>
    <g id="Group_86" data-name="Group 86" transform="translate(70.547 80.625)">
      <g id="Group_85" data-name="Group 85">
        <rect id="Rectangle_36" data-name="Rectangle 36" class="cls-1" width="8.062" height="4.031"/>
      </g>
    </g>
    <g id="Group_88" data-name="Group 88" transform="translate(50.39 80.625)">
      <g id="Group_87" data-name="Group 87">
        <rect id="Rectangle_37" data-name="Rectangle 37" class="cls-1" width="16.125" height="4.031"/>
      </g>
    </g>
  </g>
</svg>
