<svg xmlns="http://www.w3.org/2000/svg" viewBox="0 0 103.165 128.956">
  <defs>
    <style>
      .cls-1 {
        fill: #00a79d;
      }
    </style>
  </defs>
  <g id="_001-web" data-name="001-web" transform="translate(0 0)">
    <g id="Group_10" data-name="Group 10">
      <g id="Group_9" data-name="Group 9">
        <path id="Path_251" data-name="Path 251" class="cls-1" d="M140.418,0H58.746A10.759,10.759,0,0,0,48,10.746v58.03A10.759,10.759,0,0,0,58.746,79.523H88.135L85.066,90.269H78.09v4.3h42.985v-4.3H114.1l-3.069-10.746h29.389a10.759,10.759,0,0,0,10.746-10.746V10.746A10.759,10.759,0,0,0,140.418,0ZM89.537,90.269l3.069-10.746h13.953l3.069,10.746Zm57.329-21.493a6.448,6.448,0,0,1-6.448,6.448H58.746A6.448,6.448,0,0,1,52.3,68.776v-4.3h94.568Zm0-8.6H52.3V10.746A6.448,6.448,0,0,1,58.746,4.3h81.672a6.448,6.448,0,0,1,6.448,6.448Z" transform="translate(-48)"/>
      </g>
    </g>
    <g id="Group_12" data-name="Group 12" transform="translate(6.448 98.866)">
      <g id="Group_11" data-name="Group 11">
        <path id="Path_252" data-name="Path 252" class="cls-1" d="M134.329,368H74.149A2.149,2.149,0,0,0,72,370.149v25.791a2.149,2.149,0,0,0,2.149,2.149h60.179a2.149,2.149,0,0,0,2.149-2.149V370.149A2.149,2.149,0,0,0,134.329,368Zm-2.149,25.791H76.3V372.3h55.881Z" transform="translate(-72 -368)"/>
      </g>
    </g>
    <g id="Group_14" data-name="Group 14" transform="translate(15.045 116.06)">
      <g id="Group_13" data-name="Group 13">
        <rect id="Rectangle_11" data-name="Rectangle 11" class="cls-1" width="4.299" height="4.299"/>
      </g>
    </g>
    <g id="Group_16" data-name="Group 16" transform="translate(15.045 107.463)">
      <g id="Group_15" data-name="Group 15">
        <rect id="Rectangle_12" data-name="Rectangle 12" class="cls-1" width="4.299" height="4.299"/>
      </g>
    </g>
    <g id="Group_18" data-name="Group 18" transform="translate(23.642 107.463)">
      <g id="Group_17" data-name="Group 17" transform="translate(0)">
        <rect id="Rectangle_13" data-name="Rectangle 13" class="cls-1" width="4.299" height="4.299"/>
      </g>
    </g>
    <g id="Group_20" data-name="Group 20" transform="translate(32.239 107.463)">
      <g id="Group_19" data-name="Group 19" transform="translate(0)">
        <rect id="Rectangle_14" data-name="Rectangle 14" class="cls-1" width="4.299" height="4.299"/>
      </g>
    </g>
    <g id="Group_22" data-name="Group 22" transform="translate(49.433 107.463)">
      <g id="Group_21" data-name="Group 21">
        <rect id="Rectangle_15" data-name="Rectangle 15" class="cls-1" width="4.299" height="4.299"/>
      </g>
    </g>
    <g id="Group_24" data-name="Group 24" transform="translate(40.836 107.463)">
      <g id="Group_23" data-name="Group 23">
        <rect id="Rectangle_16" data-name="Rectangle 16" class="cls-1" width="4.299" height="4.299"/>
      </g>
    </g>
    <g id="Group_26" data-name="Group 26" transform="translate(58.03 116.06)">
      <g id="Group_25" data-name="Group 25">
        <rect id="Rectangle_17" data-name="Rectangle 17" class="cls-1" width="4.299" height="4.299"/>
      </g>
    </g>
    <g id="Group_28" data-name="Group 28" transform="translate(58.03 107.463)">
      <g id="Group_27" data-name="Group 27">
        <rect id="Rectangle_18" data-name="Rectangle 18" class="cls-1" width="4.299" height="4.299"/>
      </g>
    </g>
    <g id="Group_30" data-name="Group 30" transform="translate(23.642 116.06)">
      <g id="Group_29" data-name="Group 29" transform="translate(0)">
        <rect id="Rectangle_19" data-name="Rectangle 19" class="cls-1" width="30.09" height="4.299"/>
      </g>
    </g>
    <g id="Group_32" data-name="Group 32" transform="translate(75.224 98.866)">
      <g id="Group_31" data-name="Group 31">
        <path id="Path_253" data-name="Path 253" class="cls-1" d="M338.746,368A10.746,10.746,0,0,0,328,378.746v8.6a10.746,10.746,0,1,0,21.493,0v-8.6A10.746,10.746,0,0,0,338.746,368Zm6.448,19.343a6.448,6.448,0,0,1-12.9,0v-8.6a6.448,6.448,0,0,1,12.9,0Z" transform="translate(-328 -368)"/>
      </g>
    </g>
    <g id="Group_34" data-name="Group 34" transform="translate(83.821 107.463)">
      <g id="Group_33" data-name="Group 33" transform="translate(0)">
        <rect id="Rectangle_20" data-name="Rectangle 20" class="cls-1" width="4.299" height="4.299"/>
      </g>
    </g>
    <g id="Group_36" data-name="Group 36" transform="translate(45.2 18.798)">
      <g id="Group_35" data-name="Group 35" transform="translate(0 0)">
        <rect id="Rectangle_21" data-name="Rectangle 21" class="cls-1" width="31.28" height="4.297" transform="translate(0 30.072) rotate(-74.032)"/>
      </g>
    </g>
    <g id="Group_38" data-name="Group 38" transform="translate(23.643 21.991)">
      <g id="Group_37" data-name="Group 37" transform="translate(0)">
        <path id="Path_254" data-name="Path 254" class="cls-1" d="M152.423,85.157l-2.751-3.3L136.776,92.6a2.149,2.149,0,0,0,0,3.3l12.9,10.746,2.751-3.3-10.914-9.1Z" transform="translate(-136.004 -81.856)"/>
      </g>
    </g>
    <g id="Group_40" data-name="Group 40" transform="translate(63.102 21.991)">
      <g id="Group_39" data-name="Group 39">
        <path id="Path_255" data-name="Path 255" class="cls-1" d="M298.8,92.876a2.146,2.146,0,0,0-.274-.274l-12.9-10.746-2.751,3.3,10.914,9.1-10.914,9.1,2.751,3.3,12.9-10.746A2.149,2.149,0,0,0,298.8,92.876Z" transform="translate(-282.88 -81.856)"/>
      </g>
    </g>
  </g>
</svg>
