<svg xmlns="http://www.w3.org/2000/svg" viewBox="0 0 128.956 128.956">
  <defs>
    <style>
      .cls-1 {
        fill: #00a79d;
      }
    </style>
  </defs>
  <g id="_003-web-design" data-name="003-web-design" transform="translate(0 0)">
    <g id="Group_90" data-name="Group 90" transform="translate(62.329 107.463)">
      <g id="Group_89" data-name="Group 89">
        <rect id="Rectangle_38" data-name="Rectangle 38" class="cls-1" width="4.299" height="4.299"/>
      </g>
    </g>
    <g id="Group_92" data-name="Group 92">
      <g id="Group_91" data-name="Group 91">
        <path id="Path_264" data-name="Path 264" class="cls-1" d="M126.807,111.762h-2.149V34.388a8.6,8.6,0,0,0-8.6-8.6h-12.9V8.6a8.6,8.6,0,0,0-8.6-8.6H34.388a8.6,8.6,0,0,0-8.6,8.6V25.791H12.9a8.6,8.6,0,0,0-8.6,8.6v77.374H2.149A2.149,2.149,0,0,0,0,113.911v6.448a8.6,8.6,0,0,0,8.6,8.6H120.359a8.6,8.6,0,0,0,8.6-8.6v-6.448A2.149,2.149,0,0,0,126.807,111.762ZM30.09,8.6a4.3,4.3,0,0,1,4.3-4.3H94.568a4.3,4.3,0,0,1,4.3,4.3v8.6H30.09Zm0,12.9H98.866V83.821a4.3,4.3,0,0,1-4.3,4.3H34.388a4.3,4.3,0,0,1-4.3-4.3Zm4.3,70.926H94.568a8.6,8.6,0,0,0,8.6-8.6V38.687h8.6V98.866H17.194V38.687h8.6V83.821A8.6,8.6,0,0,0,34.388,92.418ZM8.6,34.388a4.3,4.3,0,0,1,4.3-4.3h12.9v4.3H15.045A2.149,2.149,0,0,0,12.9,36.538v64.478a2.149,2.149,0,0,0,2.149,2.149h98.866a2.149,2.149,0,0,0,2.149-2.149V36.538a2.149,2.149,0,0,0-2.149-2.149H103.165v-4.3h12.9a4.3,4.3,0,0,1,4.3,4.3v77.374H83.821a2.15,2.15,0,0,0-1.52.628l-3.669,3.671H50.323l-3.669-3.671a2.15,2.15,0,0,0-1.52-.628H8.6Zm116.06,85.971a4.3,4.3,0,0,1-4.3,4.3H8.6a4.3,4.3,0,0,1-4.3-4.3v-4.3H44.245l3.669,3.669a2.149,2.149,0,0,0,1.52.63h30.09a2.149,2.149,0,0,0,1.52-.63l3.669-3.669h39.946Z"/>
      </g>
    </g>
    <g id="Group_94" data-name="Group 94" transform="translate(36.538 68.776)">
      <g id="Group_93" data-name="Group 93">
        <rect id="Rectangle_39" data-name="Rectangle 39" class="cls-1" width="55.881" height="4.299"/>
      </g>
    </g>
    <g id="Group_96" data-name="Group 96" transform="translate(36.538 77.374)">
      <g id="Group_95" data-name="Group 95">
        <rect id="Rectangle_40" data-name="Rectangle 40" class="cls-1" width="51.582" height="4.299"/>
      </g>
    </g>
    <g id="Group_98" data-name="Group 98" transform="translate(49.433 60.179)">
      <g id="Group_97" data-name="Group 97">
        <rect id="Rectangle_41" data-name="Rectangle 41" class="cls-1" width="42.985" height="4.299"/>
      </g>
    </g>
    <g id="Group_100" data-name="Group 100" transform="translate(34.388 8.597)">
      <g id="Group_99" data-name="Group 99">
        <rect id="Rectangle_42" data-name="Rectangle 42" class="cls-1" width="4.299" height="4.299"/>
      </g>
    </g>
    <g id="Group_102" data-name="Group 102" transform="translate(42.985 8.597)">
      <g id="Group_101" data-name="Group 101">
        <rect id="Rectangle_43" data-name="Rectangle 43" class="cls-1" width="4.299" height="4.299"/>
      </g>
    </g>
    <g id="Group_104" data-name="Group 104" transform="translate(51.582 8.597)">
      <g id="Group_103" data-name="Group 103">
        <rect id="Rectangle_44" data-name="Rectangle 44" class="cls-1" width="4.299" height="4.299"/>
      </g>
    </g>
    <g id="Group_106" data-name="Group 106" transform="translate(40.836 60.179)">
      <g id="Group_105" data-name="Group 105">
        <rect id="Rectangle_45" data-name="Rectangle 45" class="cls-1" width="4.299" height="4.299"/>
      </g>
    </g>
    <g id="Group_108" data-name="Group 108" transform="translate(45.134 32.669)">
      <g id="Group_107" data-name="Group 107">
        <path id="Path_265" data-name="Path 265" class="cls-1" d="M180.035,125.039l-2.579-3.439-8.6,6.448a2.149,2.149,0,0,0,0,3.439l8.6,6.448,2.579-3.439-6.3-4.728Z" transform="translate(-167.999 -121.6)"/>
      </g>
    </g>
    <g id="Group_110" data-name="Group 110" transform="translate(71.785 32.669)">
      <g id="Group_109" data-name="Group 109">
        <path id="Path_266" data-name="Path 266" class="cls-1" d="M278.806,128.478a2.158,2.158,0,0,0-.43-.43l-8.6-6.448-2.579,3.439,6.3,4.728-6.3,4.728,2.579,3.439,8.6-6.448A2.149,2.149,0,0,0,278.806,128.478Z" transform="translate(-267.2 -121.6)"/>
      </g>
    </g>
    <g id="Group_112" data-name="Group 112" transform="translate(58.184 29.296)">
      <g id="Group_111" data-name="Group 111" transform="translate(0 0)">
        <rect id="Rectangle_46" data-name="Rectangle 46" class="cls-1" width="23.148" height="4.299" transform="translate(0 21.49) rotate(-68.191)"/>
      </g>
    </g>
  </g>
</svg>
