<svg xmlns="http://www.w3.org/2000/svg" viewBox="0 0 128.957 113.064">
  <defs>
    <style>
      .cls-1 {
        fill: #00a79d;
      }
    </style>
  </defs>
  <g id="_004-game" data-name="004-game" transform="translate(0 0)">
    <g id="Group_114" data-name="Group 114" transform="translate(0 0)">
      <g id="Group_113" data-name="Group 113">
        <path id="Path_267" data-name="Path 267" class="cls-1" d="M127.02,31.549H32.449a1.936,1.936,0,0,0,0,3.872h92.635v70.59H3.872V48.448H118.467a1.936,1.936,0,1,0,0-3.872H3.872V35.421h16.9a1.936,1.936,0,1,0,0-3.872H1.936A1.936,1.936,0,0,0,0,33.485V122.3a1.936,1.936,0,0,0,1.936,1.936H48.7L46.368,142.43a1.936,1.936,0,0,0,1.92,2.182H88.3a1.936,1.936,0,0,0,1.92-2.182l-2.334-18.191h39.135a1.936,1.936,0,0,0,1.936-1.936V33.485A1.937,1.937,0,0,0,127.02,31.549ZM50.489,140.741,52.573,124.5H84.015L86.1,140.741Zm74.6-20.374H3.872V109.884H125.084v10.484Z" transform="translate(0 -31.549)"/>
      </g>
    </g>
    <g id="Group_116" data-name="Group 116" transform="translate(16.114 31.511)">
      <g id="Group_115" data-name="Group 115">
        <path id="Path_268" data-name="Path 268" class="cls-1" d="M83.487,173.44l9.128-9.127a1.937,1.937,0,0,0,0-2.739,16.781,16.781,0,1,0,0,23.732,1.936,1.936,0,0,0,0-2.738Zm-2.738,12.908a12.909,12.909,0,1,1,7.657-23.3L79.38,172.07a1.936,1.936,0,0,0,0,2.738l9.026,9.026A12.808,12.808,0,0,1,80.749,186.348Z" transform="translate(-63.976 -156.659)"/>
      </g>
    </g>
    <g id="Group_118" data-name="Group 118" transform="translate(81.857 31.267)">
      <g id="Group_117" data-name="Group 117">
        <path id="Path_269" data-name="Path 269" class="cls-1" d="M339.99,155.688A15.007,15.007,0,0,0,325,170.677V186.86a1.936,1.936,0,0,0,2.593,1.821l3.013-1.088,4.147,1.368a1.935,1.935,0,0,0,1.292-.028l3.525-1.333,4.048,1.358a1.935,1.935,0,0,0,1.281-.017l3.714-1.359,3.887,1.136a1.936,1.936,0,0,0,2.479-1.858V170.677A15.006,15.006,0,0,0,339.99,155.688Zm11.117,28.589-2.018-.59a1.936,1.936,0,0,0-1.209.04l-3.674,1.344-4.059-1.362a1.935,1.935,0,0,0-1.3.024l-3.53,1.335-4.131-1.363a1.937,1.937,0,0,0-1.264.017l-1.049.379V170.677a11.118,11.118,0,0,1,22.235,0v13.6Z" transform="translate(-325 -155.688)"/>
      </g>
    </g>
    <g id="Group_120" data-name="Group 120" transform="translate(88.298 44.38)">
      <g id="Group_119" data-name="Group 119">
        <path id="Path_270" data-name="Path 270" class="cls-1" d="M354.484,207.755a3.911,3.911,0,1,0,3.911,3.911A3.916,3.916,0,0,0,354.484,207.755Zm0,3.951a.039.039,0,1,1,.039-.039A.046.046,0,0,1,354.484,211.706Z" transform="translate(-350.573 -207.755)"/>
      </g>
    </g>
    <g id="Group_122" data-name="Group 122" transform="translate(97.573 44.381)">
      <g id="Group_121" data-name="Group 121">
        <path id="Path_271" data-name="Path 271" class="cls-1" d="M391.309,207.756a3.911,3.911,0,1,0,3.911,3.911A3.916,3.916,0,0,0,391.309,207.756Zm0,3.95a.039.039,0,1,1,0-.078.047.047,0,0,1,.039.039A.047.047,0,0,1,391.309,211.706Z" transform="translate(-387.398 -207.756)"/>
      </g>
    </g>
  </g>
</svg>
