<svg xmlns="http://www.w3.org/2000/svg" viewBox="0 0 124.926 124.926">
  <defs>
    <style>
      .cls-1 {
        fill: #00a79d;
      }
    </style>
  </defs>
  <g id="_005-big-data" data-name="005-big-data" transform="translate(0 0)">
    <g id="Group_124" data-name="Group 124" transform="translate(46.344 42.314)">
      <g id="Group_123" data-name="Group 123">
        <path id="Path_272" data-name="Path 272" class="cls-1" d="M200.12,168a16.119,16.119,0,1,0,16.119,16.119A16.138,16.138,0,0,0,200.12,168Zm0,28.209a12.09,12.09,0,1,1,12.09-12.09A12.1,12.1,0,0,1,200.12,196.209Z" transform="translate(-184 -168)"/>
      </g>
    </g>
    <g id="Group_126" data-name="Group 126">
      <g id="Group_125" data-name="Group 125">
        <path id="Path_273" data-name="Path 273" class="cls-1" d="M110.821,88.657v-14.1H87.736L86.8,72.671a27.944,27.944,0,0,0,1.991-4.163h7.931a22.166,22.166,0,0,0,3.977-43.972,26.191,26.191,0,0,0-48.07-12.662A20.126,20.126,0,0,0,24.27,28.3a20.15,20.15,0,0,0,1.924,40.208H36.14a27.946,27.946,0,0,0,1.991,4.163l-.941,1.882H18.134V92.687H0v32.239H40.3V92.687H22.164v-14.1H37.02l6.524,6.524,4.681-2.341a28.016,28.016,0,0,0,7.1,2.954l1.65,4.953H67.944L69.6,85.719a27.944,27.944,0,0,0,7.1-2.954l4.681,2.341,6.524-6.524h18.886V88.657h-14.1v36.269h32.239V88.657ZM4.03,99.566,15.068,110.6,4.03,118.881ZM8.06,120.9l9.885-7.415,2.2,2.2,2.2-2.2,9.885,7.415Zm28.209-2.015L25.231,110.6,36.269,99.566ZM33.42,96.717l-13.27,13.27L6.879,96.717ZM26.194,64.478a16.119,16.119,0,1,1,0-32.239h2.015V30.224A16.1,16.1,0,0,1,52.37,16.271L54.149,17.3l.993-1.8A22.164,22.164,0,0,1,96.719,26.093l-.008,2.027,1.815.179a18.134,18.134,0,0,1-1.809,36.178h-3.7l1.689-.562V52.953L89.749,51.3A27.944,27.944,0,0,0,86.8,44.2l2.341-4.681-7.753-7.753L76.7,34.1a28.017,28.017,0,0,0-7.1-2.954l-1.652-4.955H56.982L55.33,31.147a27.944,27.944,0,0,0-7.1,2.954l-4.681-2.341-7.753,7.753,2.341,4.681a28.017,28.017,0,0,0-2.954,7.1l-4.955,1.652V63.914l1.689.564Zm59.886-.9a23.987,23.987,0,0,1-3.282,7.9l-.621.965,2.057,4.112L80.589,80.2l-4.112-2.057-.965.621a23.962,23.962,0,0,1-7.9,3.282l-1.12.244-1.453,4.35H59.884l-1.451-4.348-1.12-.244a23.988,23.988,0,0,1-7.9-3.282l-.965-.621L44.337,80.2,40.692,76.56l2.057-4.112-.621-.965a23.962,23.962,0,0,1-3.282-7.9l-.244-1.12L34.254,61.01V55.854L38.6,54.4l.244-1.12a23.987,23.987,0,0,1,3.282-7.9l.621-.965-2.057-4.112,3.645-3.645,4.112,2.057.965-.621a23.962,23.962,0,0,1,7.9-3.282l1.12-.244,1.453-4.348h5.156l1.451,4.348,1.12.244a23.987,23.987,0,0,1,7.9,3.282l.965.621,4.112-2.057,3.645,3.645-2.057,4.112.621.965a23.963,23.963,0,0,1,3.282,7.9l.244,1.12,4.348,1.453v5.156l-4.348,1.451ZM120.9,120.9H96.717V92.687H120.9Z"/>
      </g>
    </g>
    <g id="Group_128" data-name="Group 128" transform="translate(100.747 96.717)">
      <g id="Group_127" data-name="Group 127">
        <rect id="Rectangle_47" data-name="Rectangle 47" class="cls-1" width="16.119" height="4.03"/>
      </g>
    </g>
    <g id="Group_130" data-name="Group 130" transform="translate(100.747 104.777)">
      <g id="Group_129" data-name="Group 129">
        <rect id="Rectangle_48" data-name="Rectangle 48" class="cls-1" width="16.119" height="4.03"/>
      </g>
    </g>
    <g id="Group_132" data-name="Group 132" transform="translate(112.836 112.836)">
      <g id="Group_131" data-name="Group 131">
        <rect id="Rectangle_49" data-name="Rectangle 49" class="cls-1" width="4.03" height="4.03"/>
      </g>
    </g>
    <g id="Group_134" data-name="Group 134" transform="translate(100.747 112.836)">
      <g id="Group_133" data-name="Group 133">
        <rect id="Rectangle_50" data-name="Rectangle 50" class="cls-1" width="8.06" height="4.03"/>
      </g>
    </g>
    <g id="Group_136" data-name="Group 136" transform="translate(74.553 8.06)">
      <g id="Group_135" data-name="Group 135">
        <path id="Path_274" data-name="Path 274" class="cls-1" d="M296,32v4.03a14.118,14.118,0,0,1,14,12.339l4-.5A18.151,18.151,0,0,0,296,32Z" transform="translate(-296 -32)"/>
      </g>
    </g>
    <g id="Group_138" data-name="Group 138" transform="translate(14.105 48.358)">
      <g id="Group_137" data-name="Group 137">
        <path id="Path_275" data-name="Path 275" class="cls-1" d="M60.03,192H56a12.1,12.1,0,0,0,12.09,12.09v-4.03A8.068,8.068,0,0,1,60.03,192Z" transform="translate(-56 -192)"/>
      </g>
    </g>
  </g>
</svg>
