<svg xmlns="http://www.w3.org/2000/svg" viewBox="0 0 128.956 120.888">
  <defs>
    <style>
      .cls-1 {
        fill: #00a79d;
      }
    </style>
  </defs>
  <g id="_006-wifi-router" data-name="006-wifi-router" transform="translate(0 0)">
    <g id="Group_140" data-name="Group 140" transform="translate(12.353 19.009)">
      <g id="Group_139" data-name="Group 139">
        <path id="Path_276" data-name="Path 276" class="cls-1" d="M60.135,92.974a9.032,9.032,0,0,0-10.327.284,1.889,1.889,0,1,0,2.252,3.033,5.242,5.242,0,0,1,5.994-.164,1.889,1.889,0,0,0,2.082-3.153Z" transform="translate(-49.045 -91.491)"/>
      </g>
    </g>
    <g id="Group_142" data-name="Group 142" transform="translate(6.844 9.497)">
      <g id="Group_141" data-name="Group 141">
        <path id="Path_277" data-name="Path 277" class="cls-1" d="M49.477,57.112a18.484,18.484,0,0,0-21.524.138,1.889,1.889,0,1,0,2.219,3.058A14.707,14.707,0,0,1,47.3,60.2a1.889,1.889,0,0,0,2.179-3.086Z" transform="translate(-27.174 -53.725)"/>
      </g>
    </g>
    <g id="Group_144" data-name="Group 144" transform="translate(1.406 0)">
      <g id="Group_143" data-name="Group 143">
        <path id="Path_278" data-name="Path 278" class="cls-1" d="M38.76,21.109a28,28,0,0,0-32.388.131,1.889,1.889,0,1,0,2.2,3.072A24.22,24.22,0,0,1,36.586,24.2a1.889,1.889,0,1,0,2.175-3.089Z" transform="translate(-5.583 -16.017)"/>
      </g>
    </g>
    <g id="Group_146" data-name="Group 146" transform="translate(0 28.274)">
      <g id="Group_145" data-name="Group 145">
        <path id="Path_279" data-name="Path 279" class="cls-1" d="M98.8,180.767H19.93V130.162a1.889,1.889,0,1,0-3.778,0v50.605H7.946A7.955,7.955,0,0,0,0,188.713v16.152a7.959,7.959,0,0,0,6.057,7.717v4.4a3.912,3.912,0,0,0,3.908,3.908H14a3.912,3.912,0,0,0,3.908-3.908v-4.168h2.148a1.889,1.889,0,0,0,0-3.778H7.946a4.173,4.173,0,0,1-4.168-4.168V188.713a4.172,4.172,0,0,1,4.168-4.168H98.8a1.889,1.889,0,1,0,0-3.778ZM9.835,212.811h4.3v4.168h0a.13.13,0,0,1-.13.13H9.965a.13.13,0,0,1-.13-.13Z" transform="translate(0 -128.273)"/>
      </g>
    </g>
    <g id="Group_148" data-name="Group 148" transform="translate(26.247 28.274)">
      <g id="Group_147" data-name="Group 147">
        <path id="Path_280" data-name="Path 280" class="cls-1" d="M198.972,180.767h-8.206V130.162a1.889,1.889,0,1,0-3.778,0v50.605h-2.15a1.889,1.889,0,0,0,0,3.778h14.134a4.173,4.173,0,0,1,4.168,4.168v16.152a4.173,4.173,0,0,1-4.168,4.168H106.1a1.889,1.889,0,0,0,0,3.778h82.909v4.168a3.912,3.912,0,0,0,3.908,3.908h4.038a3.912,3.912,0,0,0,3.908-3.908v-4.4a7.958,7.958,0,0,0,6.057-7.717V188.713A7.955,7.955,0,0,0,198.972,180.767Zm-1.889,36.212a.13.13,0,0,1-.13.13h-4.038a.13.13,0,0,1-.13-.13v-4.168h4.3Z" transform="translate(-104.209 -128.273)"/>
      </g>
    </g>
    <g id="Group_150" data-name="Group 150" transform="translate(42.399 90.862)">
      <g id="Group_149" data-name="Group 149">
        <path id="Path_281" data-name="Path 281" class="cls-1" d="M174.266,376.772a5.927,5.927,0,1,0,5.927,5.927A5.934,5.934,0,0,0,174.266,376.772Zm0,8.076a2.149,2.149,0,1,1,2.149-2.149A2.151,2.151,0,0,1,174.266,384.848Z" transform="translate(-168.339 -376.772)"/>
      </g>
    </g>
    <g id="Group_152" data-name="Group 152" transform="translate(74.703 90.862)">
      <g id="Group_151" data-name="Group 151">
        <path id="Path_282" data-name="Path 282" class="cls-1" d="M302.524,376.772a5.927,5.927,0,1,0,5.927,5.927A5.934,5.934,0,0,0,302.524,376.772Zm0,8.076a2.149,2.149,0,1,1,2.149-2.149A2.151,2.151,0,0,1,302.524,384.848Z" transform="translate(-296.597 -376.772)"/>
      </g>
    </g>
    <g id="Group_154" data-name="Group 154" transform="translate(58.551 90.863)">
      <g id="Group_153" data-name="Group 153">
        <path id="Path_283" data-name="Path 283" class="cls-1" d="M238.395,376.773a5.927,5.927,0,1,0,5.927,5.927A5.934,5.934,0,0,0,238.395,376.773Zm0,8.076a2.149,2.149,0,1,1,2.149-2.149A2.151,2.151,0,0,1,238.395,384.849Z" transform="translate(-232.468 -376.773)"/>
      </g>
    </g>
    <g id="Group_156" data-name="Group 156" transform="translate(105.227 19.009)">
      <g id="Group_155" data-name="Group 155">
        <path id="Path_284" data-name="Path 284" class="cls-1" d="M428.877,92.974a9.031,9.031,0,0,0-10.327.284,1.889,1.889,0,1,0,2.252,3.033,5.242,5.242,0,0,1,5.993-.164,1.889,1.889,0,0,0,2.082-3.153Z" transform="translate(-417.787 -91.491)"/>
      </g>
    </g>
    <g id="Group_158" data-name="Group 158" transform="translate(99.718 9.497)">
      <g id="Group_157" data-name="Group 157">
        <path id="Path_285" data-name="Path 285" class="cls-1" d="M418.219,57.112a18.484,18.484,0,0,0-21.524.138,1.889,1.889,0,1,0,2.219,3.058,14.707,14.707,0,0,1,17.126-.109,1.889,1.889,0,0,0,2.18-3.086Z" transform="translate(-395.915 -53.724)"/>
      </g>
    </g>
    <g id="Group_160" data-name="Group 160" transform="translate(94.28 0)">
      <g id="Group_159" data-name="Group 159">
        <path id="Path_286" data-name="Path 286" class="cls-1" d="M407.5,21.11a28,28,0,0,0-32.388.131,1.889,1.889,0,1,0,2.2,3.072,24.22,24.22,0,0,1,28.014-.113A1.889,1.889,0,1,0,407.5,21.11Z" transform="translate(-374.326 -16.017)"/>
      </g>
    </g>
  </g>
</svg>
