<svg xmlns="http://www.w3.org/2000/svg" viewBox="0 0 128.956 128.956">
  <defs>
    <style>
      .cls-1 {
        fill: #00a79d;
      }
    </style>
  </defs>
  <g id="_007-chip" data-name="007-chip" transform="translate(0 0)">
    <g id="Group_162" data-name="Group 162" transform="translate(24.231 0)">
      <g id="Group_161" data-name="Group 161">
        <path id="Path_287" data-name="Path 287" class="cls-1" d="M199.042,62.59H168.627v-4.3h8.206a1.889,1.889,0,1,0,0-3.778h-8.206v-4.3h5.7a7.893,7.893,0,0,0,5.619-2.327l12.424-12.424a5.923,5.923,0,1,0-2.672-2.672L177.271,45.217a4.141,4.141,0,0,1-2.947,1.221h-5.7V42.27a9.976,9.976,0,0,0-9.965-9.965h-4.168V15.582a5.927,5.927,0,1,0-3.778,0V32.3h-4.3V24.1a1.889,1.889,0,0,0-3.778,0V32.3h-4.3V1.89a1.889,1.889,0,0,0-3.778,0V32.3h-4.3V24.1a1.889,1.889,0,0,0-3.778,0V32.3h-4.3v-5.7a7.893,7.893,0,0,0-2.327-5.619L107.435,8.561a5.93,5.93,0,1,0-2.671,2.671l12.428,12.428a4.14,4.14,0,0,1,1.221,2.947v5.7h-4.168a10.007,10.007,0,0,0-2.49.314,1.889,1.889,0,1,0,.942,3.659,6.221,6.221,0,0,1,1.548-.195h44.418a6.194,6.194,0,0,1,6.187,6.187V86.688a6.223,6.223,0,0,1-.194,1.547,1.889,1.889,0,1,0,3.659.94,10,10,0,0,0,.314-2.488V82.52h16.722a5.927,5.927,0,1,0,0-3.778H168.626v-4.3h8.206a1.889,1.889,0,1,0,0-3.778h-8.206v-4.3h30.415a1.889,1.889,0,1,0,0-3.778Zm-5.557-33.953a2.149,2.149,0,1,1-.629,1.52A2.134,2.134,0,0,1,193.484,28.637ZM103.649,7.448a2.148,2.148,0,1,1,0-3.039A2.152,2.152,0,0,1,103.649,7.448ZM152.6,12.115a2.149,2.149,0,1,1,2.149-2.149A2.152,2.152,0,0,1,152.6,12.115Zm38.361,66.367a2.149,2.149,0,1,1-2.149,2.149A2.151,2.151,0,0,1,190.966,78.482Z" transform="translate(-96.206 -0.001)"/>
      </g>
    </g>
    <g id="Group_164" data-name="Group 164" transform="translate(0 38.361)">
      <g id="Group_163" data-name="Group 163">
        <path id="Path_288" data-name="Path 288" class="cls-1" d="M102.992,232.784a5.933,5.933,0,0,0-6.824-1.114L83.74,219.242a4.14,4.14,0,0,1-1.221-2.947v-5.7h4.168a10,10,0,0,0,2.49-.314,1.889,1.889,0,0,0-.942-3.659,6.217,6.217,0,0,1-1.548.195H42.269a6.194,6.194,0,0,1-6.187-6.187V156.215a6.214,6.214,0,0,1,.195-1.548,1.889,1.889,0,0,0-3.659-.942,9.986,9.986,0,0,0-.314,2.49v4.168H15.581a5.927,5.927,0,1,0,0,3.778H32.3v4.3H24.1a1.889,1.889,0,0,0,0,3.778H32.3v4.3H1.889a1.889,1.889,0,0,0,0,3.778H32.3v4.3H24.1a1.889,1.889,0,0,0,0,3.778H32.3v4.3h-5.7a7.893,7.893,0,0,0-5.619,2.327L8.564,207.437a5.922,5.922,0,1,0,2.672,2.671L23.66,197.685a4.141,4.141,0,0,1,2.947-1.221h5.7v4.168A9.976,9.976,0,0,0,42.27,210.6h4.168V227.32a5.927,5.927,0,1,0,3.778,0V210.6h4.3V218.8a1.889,1.889,0,1,0,3.778,0V210.6h4.3v30.415a1.889,1.889,0,0,0,3.778,0V210.6h4.3V218.8a1.889,1.889,0,1,0,3.778,0V210.6h4.3v5.7a7.893,7.893,0,0,0,2.327,5.619L93.5,234.341a5.925,5.925,0,1,0,9.5-1.558ZM9.965,164.421a2.149,2.149,0,1,1,2.149-2.149A2.151,2.151,0,0,1,9.965,164.421ZM7.446,214.266a2.149,2.149,0,1,1,.629-1.52A2.135,2.135,0,0,1,7.446,214.266Zm43.028,18.671a2.149,2.149,0,1,1-2.149-2.149A2.151,2.151,0,0,1,50.475,232.937Zm49.846,5.557a2.148,2.148,0,1,1,0-3.039A2.152,2.152,0,0,1,100.321,238.494Z" transform="translate(0 -152.306)"/>
      </g>
    </g>
    <g id="Group_166" data-name="Group 166" transform="translate(44.419 42.399)">
      <g id="Group_165" data-name="Group 165">
        <path id="Path_289" data-name="Path 289" class="cls-1" d="M216.476,185.372a9.124,9.124,0,0,0-7-8.574,6.45,6.45,0,0,0,.186-1.521c0-3.825-3.395-6.937-7.567-6.937a7.858,7.858,0,0,0-5.678,2.359,7.858,7.858,0,0,0-5.678-2.359c-4.173,0-7.567,3.112-7.567,6.937a6.448,6.448,0,0,0,.186,1.521,9.124,9.124,0,0,0-7,8.574,8.3,8.3,0,0,0,1.99,5.376,9.341,9.341,0,0,0-1.99,5.729,9.728,9.728,0,0,0,4.542,8.071v0c0,4.381,3.9,7.946,8.7,7.946a9.013,9.013,0,0,0,6.814-3.012,9.013,9.013,0,0,0,6.814,3.012c4.618,0,8.406-3.3,8.685-7.456a8.83,8.83,0,0,0,4.561-7.557,8.514,8.514,0,0,0-2.627-6.057A8.516,8.516,0,0,0,216.476,185.372Zm-6.686,7.727a5.04,5.04,0,0,1,2.907,4.387,4.832,4.832,0,0,1-1.664,3.552,8.48,8.48,0,0,0-4.966-4,1.889,1.889,0,0,0-1.132,3.6,4.285,4.285,0,0,1,3.22,3.91c0,2.3-2.209,4.168-4.925,4.168s-4.925-1.87-4.925-4.168V192.438c0-2.3,2.209-4.168,4.925-4.168a1.889,1.889,0,1,0,0-3.778,9.235,9.235,0,0,0-4.925,1.4v-2.413a1.889,1.889,0,0,0-3.778,0v10.487A9,9,0,0,0,192.44,193a1.889,1.889,0,0,0-1.133,3.6,4.285,4.285,0,0,1,3.22,3.91v4.038c0,2.3-2.209,4.168-4.925,4.168s-4.925-1.87-4.925-4.168a3.808,3.808,0,0,1,1.176-2.7,1.889,1.889,0,0,0-2.663-2.68,8.033,8.033,0,0,0-1.166,1.464,5.762,5.762,0,0,1-1.889-4.165c0-2.8,2.2-5.257,5.342-5.979a1.889,1.889,0,1,0-.845-3.682,11.508,11.508,0,0,0-3.465,1.412,4.559,4.559,0,0,1-1.031-2.855c0-2.841,2.694-5.154,6.015-5.176l.05,0a1.887,1.887,0,0,0,1.6-2.883c-.014-.023-.027-.047-.043-.069l-.025-.033c-.029-.041-.059-.081-.092-.12l0,0a2.8,2.8,0,0,1-.691-1.812c0-1.742,1.7-3.159,3.789-3.159s3.789,1.417,3.789,3.159a1.889,1.889,0,1,0,3.778,0c0-1.742,1.7-3.159,3.789-3.159s3.789,1.417,3.789,3.159a2.657,2.657,0,0,1-.283,1.189,10.491,10.491,0,0,0-3.1.777,1.889,1.889,0,1,0,1.468,3.481,6.819,6.819,0,0,1,2.611-.528l.054,0,.05,0c3.32.022,6.014,2.335,6.014,5.176a5.04,5.04,0,0,1-2.907,4.387,1.889,1.889,0,0,0,0,3.341Z" transform="translate(-176.357 -168.34)"/>
      </g>
    </g>
  </g>
</svg>
