<svg xmlns="http://www.w3.org/2000/svg" viewBox="0 0 128.956 124.926">
  <defs>
    <style>
      .cls-1 {
        fill: #00a79d;
      }
    </style>
  </defs>
  <g id="_008-computer-graphic" data-name="008-computer-graphic" transform="translate(0 0)">
    <g id="Group_168" data-name="Group 168" transform="translate(0 0)">
      <g id="Group_167" data-name="Group 167">
        <path id="Path_290" data-name="Path 290" class="cls-1" d="M122.911,8H6.045A6.045,6.045,0,0,0,0,14.045V102.7a2.015,2.015,0,0,0,2.015,2.015h45.9l-3.224,16.119H40.3a2.015,2.015,0,0,0-2.015,2.015V128.9h-4.03v4.03H94.7V128.9h-4.03v-6.045a2.015,2.015,0,0,0-2.015-2.015h-4.4l-3.224-16.119h45.9a2.015,2.015,0,0,0,2.015-2.015V14.045A6.045,6.045,0,0,0,122.911,8Zm-40.3,116.866h4.03v4.03H42.314v-4.03h40.3ZM48.8,120.836l3.221-16.119H76.93l3.224,16.119Zm76.124-20.149H4.03V82.553h120.9ZM96.717,26.134H80.6a2.015,2.015,0,0,0-2.015,2.015V46.284h4.03V30.164H94.7v8.06h-8.06v4.03H94.7V52.329h-8.06v4.03H94.7V66.433h-8.06v4.03H94.7v8.06H82.612V62.4h-4.03V78.523h-8.06V68.448c0-8.223,9.986-10.03,10.405-10.1a2.015,2.015,0,0,0,1.4-3.022L64.19,25.1a2.093,2.093,0,0,0-3.454,0L42.6,55.323a2.015,2.015,0,0,0,1.39,3.022c.425.073,10.411,1.88,10.411,10.1V78.523h-8.06V62.4h-4.03V78.523H40.3V42.254h2.015v4.03h4.03V40.239a1.992,1.992,0,0,0-.163-.794l-6.045-14.1a2.015,2.015,0,0,0-3.7,0l-6.045,14.1a1.992,1.992,0,0,0-.163.794V78.523H14.1V22.1H114.851V78.523H98.732V28.149A2.015,2.015,0,0,0,96.717,26.134ZM58.433,72.478V70.463h8.06v2.015Zm8.06,4.03v2.015h-8.06V76.508ZM58.286,66.433c-.965-6.408-6.452-9.873-10.84-11.354l13-21.669v16.9h4.03V33.41l13,21.669c-4.393,1.471-9.875,4.947-10.84,11.354H58.286Zm-23-28.209,2.993-6.984,2.993,6.984Zm.979,4.03V78.523H34.254V42.254Zm88.657,36.269h-6.045V20.09a2.015,2.015,0,0,0-2.015-2.015H12.09a2.015,2.015,0,0,0-2.015,2.015V78.523H4.03V14.045A2.015,2.015,0,0,1,6.045,12.03H122.911a2.015,2.015,0,0,1,2.015,2.015Z" transform="translate(0 -8)"/>
      </g>
    </g>
    <g id="Group_170" data-name="Group 170" transform="translate(58.433 76.568)">
      <g id="Group_169" data-name="Group 169">
        <path id="Path_291" data-name="Path 291" class="cls-1" d="M238.045,312a6.045,6.045,0,1,0,6.045,6.045A6.045,6.045,0,0,0,238.045,312Zm0,8.06a2.015,2.015,0,1,1,2.015-2.015A2.015,2.015,0,0,1,238.045,320.06Z" transform="translate(-232 -312)"/>
      </g>
    </g>
  </g>
</svg>
