<svg id="arroba" xmlns="http://www.w3.org/2000/svg" viewBox="0 0 120.567 120.567">
  <defs>
    <style>
      .cls-1 {
        fill: #37748f;
      }
    </style>
  </defs>
  <g id="Group_202" data-name="Group 202">
    <g id="Group_201" data-name="Group 201">
      <path id="Path_297" data-name="Path 297" class="cls-1" d="M60.048,0A60.014,60.014,0,0,0,0,60.048c0,32.943,26.615,60.519,60.048,60.519a60.845,60.845,0,0,0,60.519-60.519C120.567,26.579,92.955,0,60.048,0Zm0,113.55c-29.215,0-53.031-24.027-53.031-53.5A53.124,53.124,0,0,1,60.048,7.017c29.475,0,53.5,23.816,53.5,53.031A53.6,53.6,0,0,1,60.048,113.55Z"/>
    </g>
  </g>
  <g id="Group_204" data-name="Group 204" transform="translate(21.193 21.193)">
    <g id="Group_203" data-name="Group 203">
      <path id="Path_298" data-name="Path 298" class="cls-1" d="M128.855,90A38.9,38.9,0,0,0,90,128.855c0,21.5,17.394,39.326,38.855,39.326a40.281,40.281,0,0,0,24.1-8.007,3.532,3.532,0,1,0-4.3-5.6,33.123,33.123,0,0,1-19.8,6.594c-17.529,0-31.79-14.519-31.79-32.308a32.026,32.026,0,0,1,64.051,0v3.532a7.064,7.064,0,1,1-14.129,0V114.726a3.532,3.532,0,1,0-7.064,0v.224a18.2,18.2,0,0,0-11.068-3.756,17.661,17.661,0,1,0,0,35.322,18.289,18.289,0,0,0,13.6-6.078,14.122,14.122,0,0,0,25.73-8.051v-3.532C168.18,107.366,150.333,90,128.855,90Zm0,49.5a10.644,10.644,0,0,1,0-21.288c6,0,11.068,4.9,11.068,10.644S134.854,139.5,128.855,139.5Z" transform="translate(-90 -90)"/>
    </g>
  </g>
</svg>
