<?xml version="1.0" encoding="UTF-8"?>
<!DOCTYPE svg PUBLIC "-//W3C//DTD SVG 1.1//EN" "http://www.w3.org/Graphics/SVG/1.1/DTD/svg11.dtd">
<!-- Creator: CorelDRAW 2018 (64-Bit) -->
<svg xmlns="http://www.w3.org/2000/svg" xml:space="preserve" width="4.09253in" height="2.00348in" version="1.1" style="shape-rendering:geometricPrecision; text-rendering:geometricPrecision; image-rendering:optimizeQuality; fill-rule:evenodd; clip-rule:evenodd"
viewBox="0 0 175.28 85.81"
 xmlns:xlink="http://www.w3.org/1999/xlink">
 <defs>
  <style type="text/css">
   <![CDATA[
    .fil0 {fill:#00A79D}
    .fil1 {fill:#367490}
   ]]>
  </style>
 </defs>
 <g id="Layer_x0020_1">
  <metadata id="CorelCorpID_0Corel-Layer"/>
  <g id="_2201237278208">
   <path class="fil0" d="M64.53 43.86c-3.29,0.89 -6.56,1.39 -9.82,2.26 -18.36,4.9 -40.09,16.61 -54.71,28.09l0.03 11.55 18.44 -10.13c36.24,-19.11 79.23,-22.16 118.16,-8.44 9.14,3.22 21.29,8.55 29.57,13.39l9.09 5.23 -0.05 -11.6c-0.3,-0.74 -9.73,-6.96 -9.98,-7.35 -0.85,-0.39 -1.87,-1.09 -2.66,-1.58 -20.77,-12.93 -43.54,-22.06 -68.6,-23.29 -8.05,-0.4 -14.74,-0.12 -22.58,0.86 -2.3,0.29 -4.65,0.8 -6.88,1.03z"/>
   <path class="fil1" d="M38.82 12.92c-1.53,8.68 7.95,18.8 18.81,15.14 4.28,-1.44 7.51,-4.58 9,-8.7 1.33,-3.66 1.19,-7.6 -0.5,-11.16l-1.2 -2.06c-0.15,-0.23 -0.13,-0.17 -0.22,-0.37 -0.23,-0.47 -0.03,0.17 -0.14,-0.4 -1.16,-0.73 -2.16,-2.83 -6.41,-4.46 -8.5,-3.27 -18.47,2.49 -19.34,12z"/>
   <path class="fil1" d="M99.57 5.32c-2.47,3.45 -4.2,7.63 -2.64,13.03 1.22,4.22 3.96,7.22 7.52,9.02 11.43,5.18 23.45,-4.86 20.2,-16.78 -1.36,-4.99 -5.29,-8.77 -10.25,-10.11 -2.99,-0.81 -6.2,-0.51 -8.91,0.54 -3.04,1.18 -4.1,2.52 -5.92,4.32z"/>
  </g>
 </g>
</svg>
