<svg xmlns="http://www.w3.org/2000/svg" viewBox="0 0 120.968 120.969">
  <defs>
    <style>
      .cls-1 {
        fill: #37748f;
      }
    </style>
  </defs>
  <g id="_001-internet" data-name="001-internet" transform="translate(-75.299 -75.299)">
    <g id="Group_207" data-name="Group 207" transform="translate(75.299 75.299)">
      <g id="Group_206" data-name="Group 206">
        <path id="Path_300" data-name="Path 300" class="cls-1" d="M198.487,93.709a60.987,60.987,0,0,0-15.393-10.88,71.972,71.972,0,0,1,7.179,14.4A71.61,71.61,0,0,0,198.487,93.709Z" transform="translate(-95.814 -76.732)"/>
        <path id="Path_301" data-name="Path 301" class="cls-1" d="M112.6,138.86h26.078v-22.1a109.857,109.857,0,0,1-22.348-3.23A111.022,111.022,0,0,0,112.6,138.86Z" transform="translate(-82.399 -82.576)"/>
        <path id="Path_302" data-name="Path 302" class="cls-1" d="M115.823,178.478a109.606,109.606,0,0,1,22.858-3.4v-19.9H112.6A112.273,112.273,0,0,0,115.823,178.478Z" transform="translate(-82.399 -90.503)"/>
        <path id="Path_303" data-name="Path 303" class="cls-1" d="M120.412,98.268a101.269,101.269,0,0,0,19.755,2.81V75.3q-1.824.126-3.614.36C130.1,79.574,124.444,87.652,120.412,98.268Z" transform="translate(-83.885 -75.299)"/>
        <path id="Path_304" data-name="Path 304" class="cls-1" d="M96.922,201.684a60.921,60.921,0,0,0,18.992,12.946,72.016,72.016,0,0,1-8.778-17.65A68.758,68.758,0,0,0,96.922,201.684Z" transform="translate(-79.414 -98.457)"/>
        <path id="Path_305" data-name="Path 305" class="cls-1" d="M116.18,81.26A60.834,60.834,0,0,0,98.7,92.789a70.315,70.315,0,0,0,9.438,4.15A70.471,70.471,0,0,1,116.18,81.26Z" transform="translate(-79.753 -76.433)"/>
        <path id="Path_306" data-name="Path 306" class="cls-1" d="M101.125,109.117a77.55,77.55,0,0,1-12.718-5.8,60.331,60.331,0,0,0-13.108,33.6H97.091A119.3,119.3,0,0,1,101.125,109.117Z" transform="translate(-75.299 -80.632)"/>
        <path id="Path_307" data-name="Path 307" class="cls-1" d="M97.093,155.187H75.3a60.309,60.309,0,0,0,11.919,32.085,76.417,76.417,0,0,1,13.394-6.294A120.747,120.747,0,0,1,97.093,155.187Z" transform="translate(-75.299 -90.503)"/>
        <path id="Path_308" data-name="Path 308" class="cls-1" d="M136.542,217.786c1.144.143,2.3.258,3.461.338V190.147a101.308,101.308,0,0,0-20.454,3.011C123.642,204.8,129.637,213.676,136.542,217.786Z" transform="translate(-83.72 -97.156)"/>
        <path id="Path_309" data-name="Path 309" class="cls-1" d="M195.766,180.946a76.851,76.851,0,0,1,12.075,5.536,60.286,60.286,0,0,0,11.353-31.292H199.279A120.511,120.511,0,0,1,195.766,180.946Z" transform="translate(-98.226 -90.503)"/>
        <path id="Path_310" data-name="Path 310" class="cls-1" d="M183.011,213.368A60.958,60.958,0,0,0,199.9,201.02a69.857,69.857,0,0,0-8.983-4.011A73.818,73.818,0,0,1,183.011,213.368Z" transform="translate(-95.798 -98.462)"/>
        <path id="Path_312" data-name="Path 312" class="cls-1" d="M161.285,76.03a61,61,0,0,0-6.1-.731v25.859a102.155,102.155,0,0,0,21.628-2.912C172.908,87.973,167.484,80.073,161.285,76.03Z" transform="translate(-90.503 -75.299)"/>
        <path id="Path_313" data-name="Path 313" class="cls-1" d="M195.121,109.281a119.168,119.168,0,0,1,4.036,27.806h19.912a60.275,60.275,0,0,0-12.537-32.869A78.879,78.879,0,0,1,195.121,109.281Z" transform="translate(-98.103 -80.803)"/>
        <path id="Path_314" data-name="Path 314" class="cls-1" d="M155.185,218.105c2.016-.137,4.007-.376,5.966-.705,6.64-4.261,12.394-12.957,16.365-24.248a102.157,102.157,0,0,0-22.331-3.1Z" transform="translate(-90.503 -97.137)"/>
        <path id="Path_315" data-name="Path 315" class="cls-1" d="M179.408,113.508a110.479,110.479,0,0,1-24.223,3.322v22.025h27.962A111.116,111.116,0,0,0,179.408,113.508Z" transform="translate(-90.503 -82.571)"/>
        <path id="Path_316" data-name="Path 316" class="cls-1" d="M183.144,155.187H155.185v19.826a110.079,110.079,0,0,1,24.755,3.406A112.121,112.121,0,0,0,183.144,155.187Z" transform="translate(-90.503 -90.503)"/>
      </g>
    </g>
  </g>
</svg>
